<svg id="Layer_1" data-name="Layer 1" xmlns="http://www.w3.org/2000/svg" viewBox="0 0 88.21 38.32"><defs><style>.cls-1{fill:#fff;}</style></defs><title>logo_BA</title><path class="cls-1" d="M28.32,11.22C33.74,3.94,29-.19,21,0,13.73.34,7.22,2.58,0,5.79l.39.74C9,3.34,18.81,2.17,18.9,5.08,19,7.37,9.55,12.17,4.58,14.45l5.49,10.27A71.2,71.2,0,0,0,23.92,16.1c2.21-.4,3.81-.42,3.89.75C28,19,17,26.06,12,28.32l5.34,10c4.15-2,15.34-7.35,21.39-15.88C42.9,16.15,40.33,9.15,28.32,11.22Z"/><path class="cls-1" d="M61.67,25.69V28a9,9,0,0,0-3.94-1,4,4,0,0,0-2.85.93,3.13,3.13,0,0,0-1,2.39,2.81,2.81,0,0,0,1,2.24,3.89,3.89,0,0,0,2.64.86,4.43,4.43,0,0,0,1.74-.37V31.84H57.73V29.91h4.16v4.3a4.52,4.52,0,0,1-1.9,1,8.39,8.39,0,0,1-2.53.4,6.68,6.68,0,0,1-4.52-1.52,5.15,5.15,0,0,1,0-7.77,6.76,6.76,0,0,1,4.58-1.51A9.57,9.57,0,0,1,61.67,25.69Z"/><path class="cls-1" d="M64.28,25H69a3.47,3.47,0,0,1,2.54.93,3,3,0,0,1,.94,2.19,3.06,3.06,0,0,1-.93,2.25,3.44,3.44,0,0,1-2.54.93H66.9v4.23H64.28Zm2.62,1.93v2.44h1.22c1.09,0,1.64-.4,1.64-1.22a1,1,0,0,0-.44-.95,3,3,0,0,0-1.49-.27Z"/><path class="cls-1" d="M81.45,25.64V27.7a8.8,8.8,0,0,0-3.34-.94A2.27,2.27,0,0,0,77,27a.71.71,0,0,0-.42.63.81.81,0,0,0,.3.58,5.51,5.51,0,0,0,1.47.7,14.46,14.46,0,0,1,1.87.8,3.52,3.52,0,0,1,1.21,1,2.7,2.7,0,0,1,.51,1.69,2.8,2.8,0,0,1-1.11,2.33,4.62,4.62,0,0,1-2.93.87,7.74,7.74,0,0,1-3.8-1V32.34a10,10,0,0,0,1.87,1,4.55,4.55,0,0,0,1.73.33c1,0,1.54-.32,1.54-1a.87.87,0,0,0-.31-.63,4.94,4.94,0,0,0-1.49-.71,17.28,17.28,0,0,1-1.87-.79,3.52,3.52,0,0,1-1.19-1,2.83,2.83,0,0,1-.5-1.72A2.63,2.63,0,0,1,75,25.66a4.7,4.7,0,0,1,2.93-.83A9,9,0,0,1,81.45,25.64Z"/><path class="cls-1" d="M80.58,2.89H76a.83.83,0,0,0-.77.53L68.43,21.18h3.62l1.7-4.48h9.17l1.67,4.48h3.62S81.65,3.81,81.53,3.53A.92.92,0,0,0,80.58,2.89ZM74.83,13.73c2.62-7,2.74-7.48,2.84-7.75a.24.24,0,0,1,.23-.16h.79c.19,0,.21.09.23.16.78,2.08,2.89,7.75,2.89,7.75Z"/><path class="cls-1" d="M65,11.8a4.07,4.07,0,0,0,2-3.59,5.13,5.13,0,0,0-5.39-5.32H51.06V21.18H62.52c3.31,0,5-2.23,5-5.21A4.75,4.75,0,0,0,65,11.8Zm-10.65-6H61.1c2.29,0,2.6,1.51,2.6,2.39a2.33,2.33,0,0,1-2.65,2.47H54.37Zm7.22,12.43H54.37V13.6H61.6a2.26,2.26,0,0,1,2.57,2.45C64.17,16.93,63.74,18.25,61.59,18.25Z"/><path class="cls-1" d="M38.75,28.34a1.91,1.91,0,1,0,1.9,1.91A1.9,1.9,0,0,0,38.75,28.34Zm0,3.48a1.57,1.57,0,1,1,1.57-1.57A1.58,1.58,0,0,1,38.75,31.82Z"/><path class="cls-1" d="M37.91,31.2V29.14h.88a1.79,1.79,0,0,1,.48.05.47.47,0,0,1,.24.2.59.59,0,0,1,.09.32.56.56,0,0,1-.14.39.66.66,0,0,1-.41.19.8.8,0,0,1,.22.17,1.89,1.89,0,0,1,.24.33l.26.41h-.5l-.3-.45c-.11-.16-.19-.26-.22-.3a.28.28,0,0,0-.13-.09.59.59,0,0,0-.21,0h-.08v.86ZM38.33,30h.3A1.35,1.35,0,0,0,39,30a.19.19,0,0,0,.11-.08.3.3,0,0,0,.05-.16.25.25,0,0,0-.06-.17.24.24,0,0,0-.15-.08h-.63Z"/></svg>