<svg id="Layer_1" data-name="Layer 1" xmlns="http://www.w3.org/2000/svg" xmlns:xlink="http://www.w3.org/1999/xlink" viewBox="0 0 301.5 523.95"><defs><style>.cls-1{fill:url(#linear-gradient);}.cls-2{opacity:0.44;fill:url(#linear-gradient-2);}</style><linearGradient id="linear-gradient" x1="39.33" y1="846.04" x2="165.53" y2="184.5" gradientUnits="userSpaceOnUse"><stop offset="0" stop-color="#0d2c6c"/><stop offset="0.99" stop-color="#00ace4"/></linearGradient><linearGradient id="linear-gradient-2" x1="154.61" y1="732.34" x2="209.68" y2="11.25" xlink:href="#linear-gradient"/></defs><title>Background_box-login</title><path class="cls-1" d="M301.5,38V486a38,38,0,0,1-38,38H38A38,38,0,0,1,0,486V38A38,38,0,0,1,38,0H263.53a38,38,0,0,1,37.76,34A36.91,36.91,0,0,1,301.5,38Z"/><path class="cls-2" d="M301.29,34V366.49C159.4,366.05,129,325.22,101,291c-21.26-26-54.48-137.1,33.9-217.7,45.62-41.61,109.05-54.43,159.74-57.1A37.53,37.53,0,0,1,301.29,34Z"/></svg>