<svg id="Layer_1" data-name="Layer 1" xmlns="http://www.w3.org/2000/svg" viewBox="0 0 13.59 12.52"><defs><style>.cls-1{fill:#8bc53f;}</style></defs><title>ic_user</title><path class="cls-1" d="M1.51,12.52A2.77,2.77,0,0,1,1.62,12a4.12,4.12,0,0,1,1.19-1.75,6,6,0,0,1,1.74-1.1A6.15,6.15,0,0,1,5.79,8.8a5.38,5.38,0,0,1,1.06-.12h.28a2.83,2.83,0,0,1,.41,0,5.69,5.69,0,0,1,.81.13,6.1,6.1,0,0,1,1.43.57,5.6,5.6,0,0,1,1.28,1,4.59,4.59,0,0,1,.76,1.15,3.64,3.64,0,0,1,.28,1h1.49a3,3,0,0,0,0-.31,3.72,3.72,0,0,0-.13-.68,4.75,4.75,0,0,0-.5-1.13,6.41,6.41,0,0,0-.78-1l-.27-.26c-.14-.12-.27-.24-.42-.35a8.13,8.13,0,0,0-.78-.52,7.47,7.47,0,0,0-1.07-.51l-.33-.13a4.18,4.18,0,0,0,1.79-3.26.38.38,0,0,1,0-.15.08.08,0,0,1,0-.07,2.38,2.38,0,0,0,0-.59,4,4,0,0,0-.19-.76,4.18,4.18,0,0,0-1.5-2A4.13,4.13,0,0,0,8.1.18,4,4,0,0,0,7,0H6.69a2.58,2.58,0,0,0-.39,0,4.24,4.24,0,0,0-.93.24,4.12,4.12,0,0,0-1.26.79,4,4,0,0,0-1,1.47,4.35,4.35,0,0,0-.33,1.38,5.23,5.23,0,0,0,0,.56,5.86,5.86,0,0,0,.13.75A4.26,4.26,0,0,0,3.94,7.11a5.37,5.37,0,0,0,.51.44l-.06,0A7.31,7.31,0,0,0,3,8.2,6.33,6.33,0,0,0,1.5,9.31a5.72,5.72,0,0,0-.86,1.1A4.57,4.57,0,0,0,0,12.24c0,.09,0,.18,0,.28ZM4.29,5.4a3,3,0,0,1-.19-.67,2.85,2.85,0,0,1,0-.29s0,0,0,0a1.31,1.31,0,0,1,0-.28A2.62,2.62,0,0,1,4.4,3,2.77,2.77,0,0,1,5,2.15a3.11,3.11,0,0,1,.67-.44,2.76,2.76,0,0,1,.85-.24,2.58,2.58,0,0,1,.48,0A2.88,2.88,0,0,1,8.6,2a2.7,2.7,0,0,1,.68.71,2.79,2.79,0,0,1,.42,1,2.76,2.76,0,0,1,.07.49.86.86,0,0,1,0,.32,2.73,2.73,0,0,1-.25,1,2.72,2.72,0,0,1-.72,1,2.82,2.82,0,0,1-1.21.63,3,3,0,0,1-.9.07,2.66,2.66,0,0,1-.92-.24,2.9,2.9,0,0,1-1-.7A3.08,3.08,0,0,1,4.29,5.4Z"/></svg>